<svg xmlns="http://www.w3.org/2000/svg" width="23" height="16" viewBox="0 0 23 16">
  <path fill="#173132" d="M17.6794348,4.77822563 L21.0241928,1.43346769 L19.7499993,0.159274188 L16.086693,3.82258051 C14.6532253,3.02620957 12.9012092,2.548387 11.1491931,2.548387 C9.39717708,2.548387 7.64516101,3.02620957 6.21169332,3.66330632 L2.548387,0 L1.2741935,1.43346769 L4.61895145,4.77822563 C1.75201607,6.68951589 0,10.0342738 0,13.6975802 L0,15.290322 L22.2983863,15.290322 L22.2983863,13.6975802 C22.2983863,10.0342738 20.5463702,6.68951589 17.6794348,4.77822563 Z M6.37096751,12.1048383 C5.41532239,12.1048383 4.77822563,11.4677415 4.77822563,10.5120964 C4.77822563,9.55645127 5.41532239,8.91935452 6.37096751,8.91935452 C7.32661264,8.91935452 7.96370939,9.55645127 7.96370939,10.5120964 C7.96370939,11.4677415 7.32661264,12.1048383 6.37096751,12.1048383 Z M15.9274188,12.1048383 C14.9717737,12.1048383 14.3346769,11.4677415 14.3346769,10.5120964 C14.3346769,9.55645127 14.9717737,8.91935452 15.9274188,8.91935452 C16.8830639,8.91935452 17.5201607,9.55645127 17.5201607,10.5120964 C17.5201607,11.4677415 16.8830639,12.1048383 15.9274188,12.1048383 Z"/>
</svg>
