<svg xmlns="http://www.w3.org/2000/svg" width="17" height="21" viewBox="0 0 17 21">
  <path fill="#173132" d="M13.849801,10.8037407 C13.8241464,8.22871531 15.9498201,6.99376268 16.0447737,6.93240622 C14.8504077,5.18464067 12.9898574,4.94521148 12.3268502,4.91753158 C10.7434565,4.75721053 9.23726459,5.84975263 8.43367368,5.84975263 C7.63210813,5.84975263 6.39207225,4.94124019 5.07888517,4.96510766 C3.35304115,4.9907622 1.76170478,5.9686134 0.873048804,7.5142799 C-0.9200689,10.6257871 0.413848325,15.2352656 2.16153445,17.7587435 C3.01552105,18.9939742 4.03383971,20.3813053 5.37085455,20.3317435 C6.65838708,20.280355 7.14526746,19.4986062 8.70189474,19.4986062 C10.2584823,19.4986062 10.6960789,20.3317435 12.0585895,20.3061684 C13.4440938,20.2804344 14.3218684,19.0473086 15.1699775,17.8083053 C16.1506483,16.3753043 16.5544493,14.9879335 16.578277,14.9167282 C16.5474995,14.9026699 13.8765675,13.8794665 13.849801,10.8037407 Z M11.2895885,3.24696794 C11.9992187,2.38603158 12.4781962,1.19158612 12.3475407,0 C11.3253699,0.0416191388 10.0863665,0.68087799 9.35298804,1.53986842 C8.69494498,2.3018799 8.11890909,3.51808804 8.27327321,4.68584641 C9.41438421,4.77488278 10.5792038,4.10595837 11.2895885,3.24696794 Z"/>
</svg>
