<svg xmlns="http://www.w3.org/2000/svg" width="17" height="17" viewBox="0 0 17 17">
  <path fill="#173132" d="M4.91247345,6.29233186 L3.36855752,1.72376991 C4.79460177,0.642163717 6.57215487,0 8.5,0 C11.6637301,0 14.4235221,1.72858407 15.8870265,4.29265044 L8.7004646,4.29265044 C8.63396903,4.28956637 8.56724779,4.28761062 8.5,4.28761062 C6.98323894,4.28761062 5.65415487,5.08961947 4.91247345,6.29233186 Z M12.7123894,8.5 C12.7123894,9.92025221 12.0087699,11.1753186 10.9319779,11.9383628 L5.59676106,16.4909779 C6.50265044,16.8202212 7.48030088,17 8.5,17 C13.1944071,17 17,13.1944071 17,8.5 C17,7.55499558 16.8455708,6.64624779 16.5609336,5.79707522 L11.7301504,5.79707522 C12.3429779,6.52867699 12.7123894,7.47104867 12.7123894,8.5 Z M4.11144248,15.7806637 L7.78043363,12.6498805 C6.12421239,12.3646416 4.79941593,11.1131106 4.40713717,9.49607965 L2.15817257,2.84118142 C0.816150442,4.34402655 0,6.32655752 0,8.5 C0,11.5886593 1.64749558,14.2922611 4.11144248,15.7806637 Z M8.5,11.1327434 C9.95402655,11.1327434 11.1327434,9.95402655 11.1327434,8.5 C11.1327434,7.04597345 9.95402655,5.86725664 8.5,5.86725664 C7.04597345,5.86725664 5.86725664,7.04597345 5.86725664,8.5 C5.86725664,9.95402655 7.04597345,11.1327434 8.5,11.1327434 Z"/>
</svg>
