<svg xmlns="http://www.w3.org/2000/svg" width="19" height="16" viewBox="0 0 19 16">
  <g fill="#173132">
    <path d="M5.00799262,12.0663436 C4.63224821,11.8641684 4.49231048,11.3948745 4.69487228,11.0187435 C4.89743408,10.6426125 5.36634146,10.5026748 5.74247244,10.7052366 C6.6288736,11.1834216 7.61346312,11.4733478 8.62163331,11.5630317 C8.67111405,10.5884929 8.82419511,9.74384115 8.97109107,9.13229006 L6.97523882,9.13229006 L6.97523882,8.35915342 C6.97523882,6.02312104 8.56674061,1.9842552 9.25096654,0.35486972 L1.54627329,0.35486972 C0.695822981,0.35486972 0,1.0506927 0,1.90114301 L0,14.3339534 C0,15.1844037 0.695822981,15.8802267 1.54627329,15.8802267 L9.23705008,15.8802267 C8.89223113,14.9389328 8.70938432,14.0007315 8.64057516,13.1170363 C7.36915194,13.0269659 6.12478851,12.6693902 5.00799262,12.0663436 Z M4.71110815,4.54681661 C4.71110815,4.17996328 5.00876576,3.88230567 5.3756191,3.88230567 C5.74247244,3.88230567 6.04013005,4.17957671 6.04013005,4.54681661 L6.04013005,5.51323742 C6.04013005,5.88009076 5.74285901,6.17774837 5.3756191,6.17774837 C5.00876576,6.17774837 4.71110815,5.88009076 4.71110815,5.51323742 L4.71110815,4.54681661 Z"/>
    <path d="M17.0097793,0.35486972 L10.934085,0.35486972 C10.6743111,0.947865528 8.91890435,5.01842997 8.57872422,7.58601677 L11.1157721,7.58601677 L10.724565,8.63013781 C10.7168336,8.65023936 10.2800114,9.86715644 10.1787305,11.5382913 C11.1552021,11.4196148 12.1030676,11.1115199 12.9573836,10.6259901 C13.3284892,10.4145372 13.8012623,10.5444241 14.011942,10.9159163 C14.2230083,11.2870219 14.0931214,11.7590218 13.7220158,11.9700881 C12.6392379,12.586278 11.4339179,12.9639553 10.1938067,13.0907497 C10.2614561,13.8812819 10.4272939,14.7139501 10.7523979,15.5365675 C10.7972398,15.649832 10.8099966,15.7669622 10.8014921,15.8806133 L17.0090062,15.8806133 C17.8594565,15.8806133 18.5552795,15.1847903 18.5552795,14.33434 L18.5552795,1.90114301 C18.5560526,1.0506927 17.8602297,0.35486972 17.0097793,0.35486972 Z M14.0049838,5.52522104 C14.0049838,5.89207438 13.7069396,6.18973199 13.3400863,6.18973199 C12.9736195,6.18973199 12.6755753,5.89207438 12.6755753,5.52522104 L12.6755753,4.55880023 C12.6755753,4.19194689 12.9728464,3.89428929 13.3400863,3.89428929 C13.7069396,3.89428929 14.0049838,4.19194689 14.0049838,4.55880023 L14.0049838,5.52522104 Z"/>
  </g>
</svg>
